<svg xmlns="http://www.w3.org/2000/svg" width="504" height="798" viewBox="0 0 504 798" font-family="'DejaVu Sans Mono','Consolas',monospace" shape-rendering="crispEdges">
<rect x="0" y="0" width="504" height="798" fill="#111111"/>
<rect x="0" y="0" width="504" height="21" fill="#111111"/>
<rect x="0" y="21" width="504" height="21" fill="#4c4c4c"/>
<rect x="0" y="42" width="504" height="21" fill="#111111"/>
<rect x="0" y="63" width="196" height="21" fill="#111111"/>
<rect x="196" y="63" width="42" height="21" fill="#4c4c4c"/>
<rect x="238" y="63" width="14" height="21" fill="#111111"/>
<rect x="252" y="63" width="42" height="21" fill="#4c4c4c"/>
<rect x="294" y="63" width="210" height="21" fill="#111111"/>
<rect x="0" y="84" width="196" height="21" fill="#111111"/>
<rect x="196" y="84" width="42" height="21" fill="#4c4c4c"/>
<rect x="238" y="84" width="14" height="21" fill="#111111"/>
<rect x="252" y="84" width="42" height="21" fill="#4c4c4c"/>
<rect x="294" y="84" width="210" height="21" fill="#111111"/>
<rect x="0" y="105" width="504" height="21" fill="#111111"/>
<rect x="0" y="126" width="504" height="21" fill="#111111"/>
<rect x="0" y="147" width="154" height="21" fill="#111111"/>
<rect x="154" y="147" width="56" height="21" fill="#4c4c4c"/>
<rect x="210" y="147" width="14" height="21" fill="#111111"/>
<rect x="224" y="147" width="56" height="21" fill="#4c4c4c"/>
<rect x="280" y="147" width="14" height="21" fill="#111111"/>
<rect x="294" y="147" width="56" height="21" fill="#4c4c4c"/>
<rect x="350" y="147" width="154" height="21" fill="#111111"/>
<rect x="0" y="168" width="154" height="21" fill="#111111"/>
<rect x="154" y="168" width="56" height="21" fill="#4c4c4c"/>
<rect x="210" y="168" width="14" height="21" fill="#111111"/>
<rect x="224" y="168" width="56" height="21" fill="#4c4c4c"/>
<rect x="280" y="168" width="14" height="21" fill="#111111"/>
<rect x="294" y="168" width="56" height="21" fill="#4c4c4c"/>
<rect x="350" y="168" width="154" height="21" fill="#111111"/>
<rect x="0" y="189" width="504" height="21" fill="#111111"/>
<rect x="0" y="210" width="504" height="21" fill="#111111"/>
<rect x="0" y="231" width="504" height="21" fill="#111111"/>
<rect x="0" y="252" width="504" height="21" fill="#111111"/>
<rect x="0" y="273" width="504" height="21" fill="#111111"/>
<rect x="0" y="294" width="504" height="21" fill="#111111"/>
<rect x="0" y="315" width="504" height="21" fill="#111111"/>
<rect x="0" y="336" width="504" height="21" fill="#111111"/>
<rect x="0" y="357" width="504" height="21" fill="#111111"/>
<rect x="0" y="378" width="154" height="21" fill="#111111"/>
<rect x="154" y="378" width="56" height="21" fill="#4c4c4c"/>
<rect x="210" y="378" width="14" height="21" fill="#111111"/>
<rect x="224" y="378" width="56" height="21" fill="#4c4c4c"/>
<rect x="280" y="378" width="14" height="21" fill="#111111"/>
<rect x="294" y="378" width="56" height="21" fill="#4c4c4c"/>
<rect x="350" y="378" width="154" height="21" fill="#111111"/>
<rect x="0" y="399" width="504" height="21" fill="#111111"/>
<rect x="0" y="420" width="154" height="21" fill="#111111"/>
<rect x="154" y="420" width="56" height="21" fill="#4c4c4c"/>
<rect x="210" y="420" width="14" height="21" fill="#111111"/>
<rect x="224" y="420" width="56" height="21" fill="#4c4c4c"/>
<rect x="280" y="420" width="14" height="21" fill="#111111"/>
<rect x="294" y="420" width="56" height="21" fill="#4c4c4c"/>
<rect x="350" y="420" width="154" height="21" fill="#111111"/>
<rect x="0" y="441" width="182" height="21" fill="#111111"/>
<rect x="182" y="441" width="56" height="21" fill="#4c4c4c"/>
<rect x="238" y="441" width="14" height="21" fill="#111111"/>
<rect x="252" y="441" width="56" height="21" fill="#4c4c4c"/>
<rect x="308" y="441" width="196" height="21" fill="#111111"/>
<rect x="0" y="462" width="196" height="21" fill="#111111"/>
<rect x="196" y="462" width="98" height="21" fill="#4c4c4c"/>
<rect x="294" y="462" width="210" height="21" fill="#111111"/>
<rect x="0" y="483" width="504" height="21" fill="#111111"/>
<rect x="0" y="504" width="504" height="21" fill="#111111"/>
<rect x="0" y="525" width="504" height="21" fill="#111111"/>
<rect x="0" y="546" width="504" height="21" fill="#111111"/>
<rect x="0" y="567" width="504" height="21" fill="#111111"/>
<rect x="0" y="588" width="504" height="21" fill="#111111"/>
<rect x="0" y="609" width="504" height="21" fill="#111111"/>
<rect x="0" y="630" width="504" height="21" fill="#111111"/>
<rect x="0" y="651" width="504" height="21" fill="#111111"/>
<rect x="0" y="672" width="504" height="21" fill="#111111"/>
<rect x="0" y="693" width="504" height="21" fill="#111111"/>
<rect x="0" y="714" width="504" height="21" fill="#111111"/>
<rect x="0" y="735" width="504" height="21" fill="#111111"/>
<rect x="0" y="756" width="504" height="21" fill="#111111"/>
<rect x="0" y="777" width="504" height="21" fill="#111111"/>
<text x="217" y="31.5" fill="#57a64e" font-size="17" text-anchor="middle" dominant-baseline="central">&lt;</text>
<text x="245" y="31.5" fill="#57a64e" font-size="17" text-anchor="middle" dominant-baseline="central">B</text>
<text x="259" y="31.5" fill="#57a64e" font-size="17" text-anchor="middle" dominant-baseline="central">A</text>
<text x="273" y="31.5" fill="#57a64e" font-size="17" text-anchor="middle" dominant-baseline="central">C</text>
<text x="287" y="31.5" fill="#57a64e" font-size="17" text-anchor="middle" dominant-baseline="central">K</text>
<text x="7" y="52.5" fill="#57a64e" font-size="17" text-anchor="middle" dominant-baseline="central">S</text>
<text x="21" y="52.5" fill="#57a64e" font-size="17" text-anchor="middle" dominant-baseline="central">O</text>
<text x="35" y="52.5" fill="#57a64e" font-size="17" text-anchor="middle" dominant-baseline="central">L</text>
<text x="49" y="52.5" fill="#57a64e" font-size="17" text-anchor="middle" dominant-baseline="central">I</text>
<text x="63" y="52.5" fill="#57a64e" font-size="17" text-anchor="middle" dominant-baseline="central">D</text>
<text x="7" y="73.5" fill="#57a64e" font-size="17" text-anchor="middle" dominant-baseline="central">1</text>
<text x="21" y="73.5" fill="#57a64e" font-size="17" text-anchor="middle" dominant-baseline="central">0</text>
<text x="35" y="73.5" fill="#57a64e" font-size="17" text-anchor="middle" dominant-baseline="central">0</text>
<text x="49" y="73.5" fill="#57a64e" font-size="17" text-anchor="middle" dominant-baseline="central">x</text>
<text x="203" y="73.5" fill="#57a64e" font-size="17" text-anchor="middle" dominant-baseline="central">-</text>
<text x="217" y="73.5" fill="#57a64e" font-size="17" text-anchor="middle" dominant-baseline="central">6</text>
<text x="231" y="73.5" fill="#57a64e" font-size="17" text-anchor="middle" dominant-baseline="central">4</text>
<text x="259" y="73.5" fill="#57a64e" font-size="17" text-anchor="middle" dominant-baseline="central">-</text>
<text x="273" y="73.5" fill="#57a64e" font-size="17" text-anchor="middle" dominant-baseline="central">1</text>
<text x="203" y="94.5" fill="#57a64e" font-size="17" text-anchor="middle" dominant-baseline="central">+</text>
<text x="217" y="94.5" fill="#57a64e" font-size="17" text-anchor="middle" dominant-baseline="central">1</text>
<text x="259" y="94.5" fill="#57a64e" font-size="17" text-anchor="middle" dominant-baseline="central">+</text>
<text x="273" y="94.5" fill="#57a64e" font-size="17" text-anchor="middle" dominant-baseline="central">6</text>
<text x="287" y="94.5" fill="#57a64e" font-size="17" text-anchor="middle" dominant-baseline="central">4</text>
<text x="7" y="136.5" fill="#57a64e" font-size="17" text-anchor="middle" dominant-baseline="central">L</text>
<text x="21" y="136.5" fill="#57a64e" font-size="17" text-anchor="middle" dominant-baseline="central">I</text>
<text x="35" y="136.5" fill="#57a64e" font-size="17" text-anchor="middle" dominant-baseline="central">Q</text>
<text x="7" y="157.5" fill="#57a64e" font-size="17" text-anchor="middle" dominant-baseline="central">1</text>
<text x="21" y="157.5" fill="#57a64e" font-size="17" text-anchor="middle" dominant-baseline="central">B</text>
<text x="161" y="157.5" fill="#57a64e" font-size="17" text-anchor="middle" dominant-baseline="central">-</text>
<text x="175" y="157.5" fill="#57a64e" font-size="17" text-anchor="middle" dominant-baseline="central">1</text>
<text x="189" y="157.5" fill="#57a64e" font-size="17" text-anchor="middle" dominant-baseline="central">0</text>
<text x="203" y="157.5" fill="#57a64e" font-size="17" text-anchor="middle" dominant-baseline="central">0</text>
<text x="231" y="157.5" fill="#57a64e" font-size="17" text-anchor="middle" dominant-baseline="central">-</text>
<text x="245" y="157.5" fill="#57a64e" font-size="17" text-anchor="middle" dominant-baseline="central">5</text>
<text x="259" y="157.5" fill="#57a64e" font-size="17" text-anchor="middle" dominant-baseline="central">0</text>
<text x="315" y="157.5" fill="#57a64e" font-size="17" text-anchor="middle" dominant-baseline="central">-</text>
<text x="329" y="157.5" fill="#57a64e" font-size="17" text-anchor="middle" dominant-baseline="central">1</text>
<text x="175" y="178.5" fill="#57a64e" font-size="17" text-anchor="middle" dominant-baseline="central">+</text>
<text x="189" y="178.5" fill="#57a64e" font-size="17" text-anchor="middle" dominant-baseline="central">1</text>
<text x="231" y="178.5" fill="#57a64e" font-size="17" text-anchor="middle" dominant-baseline="central">+</text>
<text x="245" y="178.5" fill="#57a64e" font-size="17" text-anchor="middle" dominant-baseline="central">5</text>
<text x="259" y="178.5" fill="#57a64e" font-size="17" text-anchor="middle" dominant-baseline="central">0</text>
<text x="301" y="178.5" fill="#57a64e" font-size="17" text-anchor="middle" dominant-baseline="central">+</text>
<text x="315" y="178.5" fill="#57a64e" font-size="17" text-anchor="middle" dominant-baseline="central">1</text>
<text x="329" y="178.5" fill="#57a64e" font-size="17" text-anchor="middle" dominant-baseline="central">0</text>
<text x="343" y="178.5" fill="#57a64e" font-size="17" text-anchor="middle" dominant-baseline="central">0</text>
<text x="161" y="388.5" fill="#57a64e" font-size="17" text-anchor="middle" dominant-baseline="central">F</text>
<text x="175" y="388.5" fill="#57a64e" font-size="17" text-anchor="middle" dominant-baseline="central">C</text>
<text x="189" y="388.5" fill="#57a64e" font-size="17" text-anchor="middle" dominant-baseline="central">S</text>
<text x="231" y="388.5" fill="#57a64e" font-size="17" text-anchor="middle" dominant-baseline="central">G</text>
<text x="245" y="388.5" fill="#57a64e" font-size="17" text-anchor="middle" dominant-baseline="central">N</text>
<text x="259" y="388.5" fill="#57a64e" font-size="17" text-anchor="middle" dominant-baseline="central">D</text>
<text x="301" y="388.5" fill="#57a64e" font-size="17" text-anchor="middle" dominant-baseline="central">P</text>
<text x="315" y="388.5" fill="#57a64e" font-size="17" text-anchor="middle" dominant-baseline="central">A</text>
<text x="329" y="388.5" fill="#57a64e" font-size="17" text-anchor="middle" dominant-baseline="central">R</text>
<text x="343" y="388.5" fill="#57a64e" font-size="17" text-anchor="middle" dominant-baseline="central">M</text>
<text x="161" y="430.5" fill="#57a64e" font-size="17" text-anchor="middle" dominant-baseline="central">P</text>
<text x="175" y="430.5" fill="#57a64e" font-size="17" text-anchor="middle" dominant-baseline="central">R</text>
<text x="189" y="430.5" fill="#57a64e" font-size="17" text-anchor="middle" dominant-baseline="central">E</text>
<text x="231" y="430.5" fill="#57a64e" font-size="17" text-anchor="middle" dominant-baseline="central">M</text>
<text x="245" y="430.5" fill="#57a64e" font-size="17" text-anchor="middle" dominant-baseline="central">A</text>
<text x="259" y="430.5" fill="#57a64e" font-size="17" text-anchor="middle" dominant-baseline="central">N</text>
<text x="301" y="430.5" fill="#57a64e" font-size="17" text-anchor="middle" dominant-baseline="central">C</text>
<text x="315" y="430.5" fill="#57a64e" font-size="17" text-anchor="middle" dominant-baseline="central">R</text>
<text x="329" y="430.5" fill="#57a64e" font-size="17" text-anchor="middle" dominant-baseline="central">U</text>
<text x="189" y="451.5" fill="#57a64e" font-size="17" text-anchor="middle" dominant-baseline="central">C</text>
<text x="203" y="451.5" fill="#57a64e" font-size="17" text-anchor="middle" dominant-baseline="central">P</text>
<text x="217" y="451.5" fill="#57a64e" font-size="17" text-anchor="middle" dominant-baseline="central">L</text>
<text x="259" y="451.5" fill="#57a64e" font-size="17" text-anchor="middle" dominant-baseline="central">D</text>
<text x="273" y="451.5" fill="#57a64e" font-size="17" text-anchor="middle" dominant-baseline="central">C</text>
<text x="287" y="451.5" fill="#57a64e" font-size="17" text-anchor="middle" dominant-baseline="central">P</text>
<text x="301" y="451.5" fill="#57a64e" font-size="17" text-anchor="middle" dominant-baseline="central">L</text>
<text x="203" y="472.5" fill="#f2b233" font-size="17" text-anchor="middle" dominant-baseline="central">T</text>
<text x="217" y="472.5" fill="#f2b233" font-size="17" text-anchor="middle" dominant-baseline="central">R</text>
<text x="231" y="472.5" fill="#f2b233" font-size="17" text-anchor="middle" dominant-baseline="central">I</text>
<text x="245" y="472.5" fill="#f2b233" font-size="17" text-anchor="middle" dominant-baseline="central">M</text>
<text x="273" y="472.5" fill="#f2b233" font-size="17" text-anchor="middle" dominant-baseline="central">-</text>
<text x="287" y="472.5" fill="#f2b233" font-size="17" text-anchor="middle" dominant-baseline="central">-</text>
</svg>