<svg xmlns="http://www.w3.org/2000/svg" width="504" height="210" viewBox="0 0 504 210" font-family="'DejaVu Sans Mono','Consolas',monospace" shape-rendering="crispEdges">
<rect x="0" y="0" width="504" height="210" fill="#111111"/>
<rect x="0" y="0" width="504" height="21" fill="#111111"/>
<rect x="0" y="21" width="504" height="21" fill="#111111"/>
<rect x="0" y="42" width="504" height="21" fill="#111111"/>
<rect x="0" y="63" width="504" height="21" fill="#111111"/>
<rect x="0" y="84" width="14" height="21" fill="#111111"/>
<rect x="14" y="84" width="238" height="21" fill="#cc4c4c"/>
<rect x="252" y="84" width="14" height="21" fill="#111111"/>
<rect x="266" y="84" width="224" height="21" fill="#cc4c4c"/>
<rect x="490" y="84" width="14" height="21" fill="#111111"/>
<rect x="0" y="105" width="14" height="21" fill="#111111"/>
<rect x="14" y="105" width="476" height="21" fill="#cc4c4c"/>
<rect x="490" y="105" width="14" height="21" fill="#111111"/>
<rect x="0" y="126" width="504" height="21" fill="#111111"/>
<rect x="0" y="147" width="504" height="21" fill="#111111"/>
<rect x="0" y="168" width="504" height="21" fill="#111111"/>
<rect x="0" y="189" width="504" height="21" fill="#111111"/>
<text x="21" y="31.5" fill="#f0f0f0" font-size="17" text-anchor="middle" dominant-baseline="central">P</text>
<text x="35" y="31.5" fill="#f0f0f0" font-size="17" text-anchor="middle" dominant-baseline="central">F</text>
<text x="49" y="31.5" fill="#f0f0f0" font-size="17" text-anchor="middle" dominant-baseline="central">D</text>
<text x="77" y="31.5" fill="#f0f0f0" font-size="17" text-anchor="middle" dominant-baseline="central">R</text>
<text x="91" y="31.5" fill="#f0f0f0" font-size="17" text-anchor="middle" dominant-baseline="central">A</text>
<text x="105" y="31.5" fill="#f0f0f0" font-size="17" text-anchor="middle" dominant-baseline="central">T</text>
<text x="119" y="31.5" fill="#f0f0f0" font-size="17" text-anchor="middle" dominant-baseline="central">E</text>
<text x="21" y="73.5" fill="#f0f0f0" font-size="17" text-anchor="middle" dominant-baseline="central">R</text>
<text x="35" y="73.5" fill="#f0f0f0" font-size="17" text-anchor="middle" dominant-baseline="central">A</text>
<text x="49" y="73.5" fill="#f0f0f0" font-size="17" text-anchor="middle" dominant-baseline="central">T</text>
<text x="63" y="73.5" fill="#f0f0f0" font-size="17" text-anchor="middle" dominant-baseline="central">E</text>
<text x="91" y="73.5" fill="#f0f0f0" font-size="17" text-anchor="middle" dominant-baseline="central">1</text>
<text x="105" y="73.5" fill="#f0f0f0" font-size="17" text-anchor="middle" dominant-baseline="central">0</text>
<text x="119" y="73.5" fill="#f0f0f0" font-size="17" text-anchor="middle" dominant-baseline="central">H</text>
<text x="133" y="73.5" fill="#f0f0f0" font-size="17" text-anchor="middle" dominant-baseline="central">z</text>
<text x="175" y="73.5" fill="#f0f0f0" font-size="17" text-anchor="middle" dominant-baseline="central">(</text>
<text x="189" y="73.5" fill="#f0f0f0" font-size="17" text-anchor="middle" dominant-baseline="central">1</text>
<text x="203" y="73.5" fill="#f0f0f0" font-size="17" text-anchor="middle" dominant-baseline="central">0</text>
<text x="217" y="73.5" fill="#f0f0f0" font-size="17" text-anchor="middle" dominant-baseline="central">0</text>
<text x="231" y="73.5" fill="#f0f0f0" font-size="17" text-anchor="middle" dominant-baseline="central">m</text>
<text x="245" y="73.5" fill="#f0f0f0" font-size="17" text-anchor="middle" dominant-baseline="central">s</text>
<text x="259" y="73.5" fill="#f0f0f0" font-size="17" text-anchor="middle" dominant-baseline="central">)</text>
<text x="77" y="94.5" fill="#f0f0f0" font-size="17" text-anchor="middle" dominant-baseline="central">-</text>
<text x="105" y="94.5" fill="#f0f0f0" font-size="17" text-anchor="middle" dominant-baseline="central">S</text>
<text x="119" y="94.5" fill="#f0f0f0" font-size="17" text-anchor="middle" dominant-baseline="central">L</text>
<text x="133" y="94.5" fill="#f0f0f0" font-size="17" text-anchor="middle" dominant-baseline="central">O</text>
<text x="147" y="94.5" fill="#f0f0f0" font-size="17" text-anchor="middle" dominant-baseline="central">W</text>
<text x="161" y="94.5" fill="#f0f0f0" font-size="17" text-anchor="middle" dominant-baseline="central">E</text>
<text x="175" y="94.5" fill="#f0f0f0" font-size="17" text-anchor="middle" dominant-baseline="central">R</text>
<text x="329" y="94.5" fill="#f0f0f0" font-size="17" text-anchor="middle" dominant-baseline="central">+</text>
<text x="357" y="94.5" fill="#f0f0f0" font-size="17" text-anchor="middle" dominant-baseline="central">F</text>
<text x="371" y="94.5" fill="#f0f0f0" font-size="17" text-anchor="middle" dominant-baseline="central">A</text>
<text x="385" y="94.5" fill="#f0f0f0" font-size="17" text-anchor="middle" dominant-baseline="central">S</text>
<text x="399" y="94.5" fill="#f0f0f0" font-size="17" text-anchor="middle" dominant-baseline="central">T</text>
<text x="413" y="94.5" fill="#f0f0f0" font-size="17" text-anchor="middle" dominant-baseline="central">E</text>
<text x="427" y="94.5" fill="#f0f0f0" font-size="17" text-anchor="middle" dominant-baseline="central">R</text>
<text x="245" y="115.5" fill="#f0f0f0" font-size="17" text-anchor="middle" dominant-baseline="central">&lt;</text>
</svg>